<?xml version="1.0" standalone="no"?>
<!DOCTYPE svg PUBLIC "-//W3C//DTD SVG 20010904//EN"
 "http://www.w3.org/TR/2001/REC-SVG-20010904/DTD/svg10.dtd">
<svg version="1.0" xmlns="http://www.w3.org/2000/svg"
 width="512.000000pt" height="512.000000pt" viewBox="0 0 512.000000 512.000000"
 preserveAspectRatio="xMidYMid meet">

<g transform="translate(0.000000,512.000000) scale(0.100000,-0.100000)"
fill="#000000" stroke="none">
<path d="M2666 4995 c-43 -13 -88 -33 -100 -44 -19 -20 -19 -22 -4 -38 15 -14
24 -15 63 -6 25 6 45 9 45 6 0 -2 -23 -35 -52 -73 -48 -65 -53 -68 -72 -54
-27 19 -62 18 -70 -2 -7 -17 -2 -29 25 -59 17 -19 16 -23 -46 -113 -71 -104
-78 -123 -60 -149 13 -17 15 -17 40 7 15 14 52 61 82 105 31 44 57 81 58 83 2
2 18 -6 36 -17 84 -51 120 7 43 68 l-26 20 48 66 c26 36 49 65 51 65 2 0 3
-19 2 -43 -3 -50 5 -67 30 -67 35 0 42 25 44 147 l2 118 -30 2 c-16 1 -66 -9
-109 -22z"/>
<path d="M3546 4798 c-3 -7 -7 -35 -10 -63 -6 -49 -46 -142 -103 -237 -22 -38
-26 -51 -17 -65 18 -30 43 -27 72 9 110 134 216 193 283 158 10 -6 19 -19 19
-29 0 -29 -174 -252 -217 -278 -45 -27 -116 -30 -170 -8 -19 8 -43 15 -53 15
-19 0 -32 -22 -25 -42 12 -32 78 -62 140 -66 l63 -4 -10 -29 c-17 -50 -1 -118
38 -157 32 -32 38 -34 85 -30 39 4 57 12 84 38 40 38 57 96 44 145 -17 62 -52
81 -83 46 -14 -15 -15 -24 -7 -40 19 -34 13 -68 -15 -90 -44 -35 -83 4 -69 68
5 25 67 112 223 314 45 59 52 74 52 112 0 102 -130 155 -242 99 l-26 -14 5 59
c3 35 1 66 -6 79 -13 24 -49 30 -55 10z"/>
<path d="M1483 4710 c-12 -5 -32 -23 -44 -39 -16 -21 -31 -31 -50 -31 -47 0
-109 -67 -109 -119 0 -20 -1 -20 -35 -4 -60 29 -115 -13 -56 -43 43 -22 74
-60 118 -149 61 -121 80 -147 107 -143 32 5 31 39 -2 105 -38 74 -54 134 -54
196 1 48 18 85 33 70 4 -4 24 -49 43 -100 60 -158 83 -191 120 -177 27 10 24
32 -15 124 -56 130 -66 170 -50 209 15 35 40 40 64 14 8 -10 37 -82 62 -161
53 -160 91 -225 150 -260 55 -32 133 -27 173 11 31 30 42 33 42 13 0 -8 8 -24
18 -36 16 -19 22 -21 40 -11 29 16 28 37 -9 131 -24 63 -35 81 -54 86 -27 7
-110 -28 -118 -50 -8 -19 7 -37 31 -39 37 -2 2 -41 -40 -45 -68 -6 -111 58
-162 237 -31 108 -54 156 -89 189 -27 26 -81 36 -114 22z"/>
<path d="M4422 3928 c-86 -83 -83 -99 20 -114 43 -5 80 -12 83 -15 2 -3 -13
-23 -35 -44 -65 -63 -51 -86 60 -101 28 -4 52 -10 55 -14 2 -4 -14 -24 -35
-45 -41 -40 -49 -65 -27 -82 26 -21 216 -85 232 -79 11 4 15 15 13 32 -3 23
-13 31 -81 57 l-79 29 46 47 c70 71 61 94 -38 106 -90 11 -91 12 -51 57 23 25
35 47 33 61 -3 19 -14 24 -83 36 -44 7 -82 15 -84 17 -3 3 12 22 33 43 25 25
37 45 33 55 -11 27 -30 18 -95 -46z"/>
<path d="M574 3931 c-96 -43 -158 -185 -123 -278 15 -41 67 -91 108 -104 20
-6 42 -12 49 -14 8 -3 2 -20 -20 -56 -33 -55 -31 -81 8 -87 25 -3 139 157 139
196 0 27 0 27 -70 27 -86 0 -119 18 -136 74 -15 50 0 98 47 147 30 32 38 36
69 31 48 -8 91 -41 115 -88 32 -62 58 -55 119 36 55 80 60 95 36 115 -22 18
-60 -1 -80 -40 -8 -16 -18 -30 -21 -30 -4 0 -22 14 -42 31 -68 60 -127 72
-198 40z"/>
<path d="M2512 3843 c-5 -10 -13 -63 -16 -118 -13 -175 -56 -697 -66 -784 -17
-153 -29 -151 -267 41 -103 83 -206 166 -227 185 -22 18 -45 33 -52 33 -16 0
-44 -28 -44 -43 0 -7 43 -66 96 -132 177 -221 274 -353 274 -373 0 -44 1 -43
-418 -91 -145 -17 -270 -35 -278 -42 -17 -14 -18 -43 -1 -57 6 -5 154 -26 327
-45 288 -33 316 -38 332 -58 10 -11 18 -24 18 -28 0 -4 -54 -83 -120 -176 -66
-93 -120 -176 -120 -185 0 -20 19 -40 38 -40 8 0 93 56 190 125 176 125 212
142 231 107 15 -28 37 -207 66 -532 14 -162 28 -305 30 -317 3 -12 15 -25 26
-28 40 -13 50 13 65 171 8 82 23 226 34 319 42 376 44 385 91 385 11 0 92 -61
180 -135 88 -74 166 -135 173 -135 18 0 36 21 36 43 0 10 -46 79 -102 153
-147 192 -151 199 -144 228 3 14 14 30 24 35 16 9 151 29 605 93 68 9 80 14
90 35 20 44 -1 51 -258 83 -346 43 -458 60 -472 72 -32 26 -13 63 121 235 205
263 189 239 176 262 -6 12 -21 21 -33 21 -13 0 -97 -59 -207 -145 -102 -80
-192 -145 -202 -145 -28 0 -45 27 -52 82 -3 29 -17 195 -31 368 -14 173 -30
364 -35 424 -5 71 -13 112 -22 117 -21 14 -47 10 -56 -8z"/>
<path d="M861 3599 c-83 -133 -151 -245 -151 -250 0 -10 29 -39 39 -39 4 0 14
6 23 13 22 17 298 461 298 479 0 19 -20 38 -41 38 -12 0 -65 -76 -168 -241z"/>
<path d="M4161 3772 c-34 -32 -61 -65 -61 -75 0 -21 37 -37 88 -38 20 0 45 -4
55 -7 16 -7 15 -11 -12 -47 -33 -43 -39 -70 -18 -78 8 -3 39 -8 71 -12 31 -4
58 -11 61 -15 2 -4 -12 -28 -32 -54 -44 -57 -37 -69 55 -90 37 -8 89 -22 115
-30 55 -17 77 -12 77 15 0 24 -18 33 -110 54 -41 10 -77 20 -79 21 -2 2 13 22
33 44 56 63 48 82 -41 99 l-72 13 30 43 c46 64 38 78 -46 88 -39 5 -72 11 -74
13 -2 2 12 21 32 44 38 41 40 70 7 70 -10 0 -46 -26 -79 -58z"/>
<path d="M395 2938 c-34 -18 -55 -52 -55 -89 0 -67 61 -83 70 -19 6 41 30 49
95 30 67 -20 135 -85 135 -130 0 -14 -74 -12 -205 5 -189 25 -251 17 -289 -37
-24 -35 -20 -99 9 -142 23 -34 24 -39 10 -59 -32 -46 -4 -134 50 -159 14 -6
25 -14 25 -17 -1 -3 -19 -18 -40 -33 -39 -27 -52 -59 -29 -73 6 -4 38 5 71 20
53 24 80 28 217 37 86 5 162 11 169 13 13 5 17 51 4 59 -4 2 -79 10 -165 16
-166 11 -221 26 -233 64 -13 41 18 48 188 43 169 -5 183 -2 176 45 -4 29 -45
36 -204 37 -98 1 -115 4 -145 24 -37 24 -52 73 -27 88 20 13 110 11 238 -7 63
-8 136 -12 162 -9 52 7 48 14 65 -85 7 -38 12 -45 34 -48 43 -5 52 17 40 98
l-11 71 30 26 c55 46 80 126 44 140 -12 4 -29 -8 -58 -42 l-42 -48 -27 46
c-52 88 -149 147 -241 147 -23 0 -50 -6 -61 -12z"/>
<path d="M4692 2698 c-6 -7 -14 -26 -17 -41 -7 -27 -8 -28 -69 -21 -33 3 -88
12 -121 19 -67 15 -85 8 -85 -31 0 -28 33 -39 173 -56 l97 -12 0 -112 c0 -90
3 -114 16 -125 24 -20 48 1 52 45 2 20 9 36 15 36 7 0 59 -11 117 -25 69 -16
108 -21 115 -14 29 29 -68 85 -175 102 l-70 11 0 43 c0 38 3 43 28 48 123 26
172 46 206 84 17 19 18 23 5 36 -13 13 -25 11 -103 -15 -109 -37 -134 -38
-142 -5 -8 33 -28 49 -42 33z"/>
<path d="M4470 2441 c-74 -23 -117 -62 -104 -96 8 -20 37 -17 109 13 28 12 71
26 98 33 39 10 47 15 47 35 0 23 -3 24 -62 23 -35 0 -74 -4 -88 -8z"/>
<path d="M716 1847 c-32 -23 -16 -51 32 -58 47 -6 62 -20 54 -51 -7 -30 -67
-64 -182 -103 -136 -47 -181 -74 -219 -132 -24 -36 -31 -57 -31 -96 0 -44 4
-54 34 -82 77 -72 167 -53 312 65 71 58 72 58 84 35 16 -29 80 -65 117 -65 43
0 95 39 112 83 30 80 -25 157 -112 157 -54 0 -120 -38 -217 -125 -95 -86 -144
-115 -192 -115 -43 0 -56 10 -64 46 -12 60 43 99 235 169 85 31 114 48 153 85
44 43 48 50 48 94 0 39 -5 53 -29 77 -24 23 -38 29 -73 29 -24 0 -52 -6 -62
-13z m232 -329 c7 -7 12 -21 12 -33 0 -28 -19 -45 -49 -45 -32 0 -45 8 -60 37
-10 20 -8 24 16 37 34 19 65 20 81 4z"/>
<path d="M1818 1849 c-38 -22 -11 -88 31 -74 29 9 36 42 15 66 -20 22 -22 22
-46 8z"/>
<path d="M4594 1681 c-49 -21 -79 -92 -55 -129 13 -22 46 -10 49 18 7 50 44
66 75 32 41 -45 -2 -112 -71 -112 -74 0 -199 51 -385 157 -37 21 -52 25 -65
17 -41 -26 -26 -47 103 -138 206 -146 276 -239 228 -304 -15 -20 -29 -27 -54
-27 -30 0 -34 3 -37 29 -3 22 3 34 25 52 25 20 27 24 12 38 -21 23 -75 3 -94
-35 -50 -97 51 -192 152 -143 90 45 109 152 44 247 l-32 48 25 -6 c14 -3 37
-7 51 -10 70 -15 166 48 179 118 17 93 -72 181 -150 148z"/>
<path d="M1333 986 c-156 -73 -126 -276 40 -276 41 0 53 5 78 30 27 27 30 35
27 86 -4 69 -24 90 -58 59 -15 -14 -19 -26 -15 -46 12 -55 -47 -74 -87 -27
-50 57 16 121 122 121 121 0 195 -62 236 -197 12 -38 38 -55 62 -40 40 27 -5
162 -78 233 -83 80 -224 105 -327 57z"/>
<path d="M3489 987 c-150 -42 -208 -205 -104 -296 39 -34 85 -47 114 -31 39
20 20 70 -26 70 -35 0 -63 34 -63 76 0 29 8 44 38 74 62 62 157 66 214 10 23
-23 28 -37 28 -76 0 -59 -33 -130 -69 -148 -57 -31 -103 -99 -116 -174 -8 -50
10 -138 31 -146 33 -13 42 4 46 87 6 103 25 142 81 168 56 25 118 24 200 -5
60 -22 69 -23 74 -9 15 38 -65 91 -151 100 l-54 6 15 35 c22 52 13 131 -20
181 -47 70 -147 103 -238 78z"/>
<path d="M1171 702 c-21 -40 25 -157 86 -214 69 -65 194 -96 287 -73 144 37
193 183 90 264 -55 44 -146 35 -180 -17 -22 -34 -22 -113 0 -147 9 -13 16 -27
16 -31 0 -13 -76 8 -117 32 -52 30 -81 70 -102 142 -15 49 -21 57 -43 60 -18
2 -30 -3 -37 -16z m423 -91 c26 -29 17 -65 -17 -69 -34 -4 -57 13 -57 42 0 45
44 61 74 27z"/>
<path d="M2330 706 c-24 -30 -8 -58 45 -78 l50 -19 -3 -163 c-2 -139 -1 -165
13 -176 13 -11 19 -11 32 3 13 13 18 48 24 164 4 81 8 151 8 156 1 4 17 7 36
7 l35 0 0 -189 0 -188 -70 -5 c-49 -4 -86 -14 -127 -34 -64 -32 -70 -41 -49
-69 13 -18 17 -19 48 -6 93 38 144 46 215 32 116 -22 130 -23 137 -12 14 21
-5 48 -44 66 l-40 18 0 204 c0 172 2 203 15 203 20 0 85 59 85 76 0 26 -25 25
-106 -2 -90 -30 -154 -28 -232 6 -53 24 -56 24 -72 6z"/>
</g>
</svg>
